<svg xmlns="http://www.w3.org/2000/svg" width="36.999" height="34" viewBox="0 0 36.999 34">
  <path id="icon" d="M942.976,650.918h0a.954.954,0,0,1-.67-.272.935.935,0,0,1-.278-.659l-.028-20.2s0-.005,0-.007,0-.007,0-.01a.931.931,0,0,1,.409-.753l5.322-3.617v-3.838a.941.941,0,0,1,.948-.932h6.067l5.217-3.546a.96.96,0,0,1,1.079,0l5.185,3.545h6.094a.94.94,0,0,1,.947.932v3.883l5.3,3.621a.934.934,0,0,1,.373.518.518.518,0,0,1,.034.185l.028,20.17a.916.916,0,0,1-.27.653.95.95,0,0,1-.676.281Zm17.537-13.132L945.748,649.05l29.478-.04-14.712-11.224ZM943.9,631.562l.023,16.524,11.443-8.73L943.9,631.562Zm33.18-.045-11.438,7.821,11.461,8.743-.023-16.565Zm-27.452-9.024v10.7l7.308,4.968,3-2.288a.943.943,0,0,1,.578-.195.964.964,0,0,1,.57.187l.013.008,2.977,2.272,7.3-4.992V622.493Zm-1.9,5.17-3.118,2.12,3.118,2.12v-4.24Zm25.537.05v4.141l3.028-2.071-3.028-2.07ZM960.5,618.984l-2.421,1.645h4.829l-2.408-1.645Zm6.414,13.947h-12.83a.932.932,0,1,1,0-1.864h12.83a.932.932,0,1,1,0,1.864Zm0-4.846h-12.83a.932.932,0,1,1,0-1.864h12.83a.932.932,0,1,1,0,1.864Z" transform="translate(-941.999 -616.918)" fill="#a3bbc8"/>
</svg>
