<svg xmlns="http://www.w3.org/2000/svg" width="36.879" height="44.131" viewBox="0 0 36.879 44.131">
  <path id="icon" d="M1360.5,655.98a5.061,5.061,0,1,1,4.99-5.061A5.032,5.032,0,0,1,1360.5,655.98Zm0-8.14a3.08,3.08,0,1,0,3.049,3.08A3.069,3.069,0,0,0,1360.5,647.84Zm13.44-3.19a5.061,5.061,0,1,1,5-5.06A5.036,5.036,0,0,1,1373.94,644.65Zm0-8.141a3.08,3.08,0,1,0,3.05,3.081A3.069,3.069,0,0,0,1373.94,636.51Zm-13.44,8.141a5.061,5.061,0,1,1,5-5.06A5.036,5.036,0,0,1,1360.5,644.65Zm0-8.141a3.08,3.08,0,1,0,3.049,3.081A3.069,3.069,0,0,0,1360.5,636.51Zm-13.441,8.141a5.061,5.061,0,1,1,5-5.06A5.036,5.036,0,0,1,1347.06,644.65Zm0-8.141a3.08,3.08,0,1,0,3.05,3.081A3.069,3.069,0,0,0,1347.06,636.51Zm26.88-3.2a5.061,5.061,0,1,1,5-5.06A5.036,5.036,0,0,1,1373.94,633.31Zm0-8.141a3.08,3.08,0,1,0,3.05,3.081A3.069,3.069,0,0,0,1373.94,625.17Zm-13.44,8.141a5.061,5.061,0,1,1,5-5.06A5.036,5.036,0,0,1,1360.5,633.31Zm0-8.141a3.08,3.08,0,1,0,3.049,3.081A3.069,3.069,0,0,0,1360.5,625.17Zm-13.441,8.141a5.061,5.061,0,1,1,5-5.06A5.036,5.036,0,0,1,1347.06,633.31Zm0-8.141a3.08,3.08,0,1,0,3.05,3.081A3.069,3.069,0,0,0,1347.06,625.17Zm26.88-3.2a5.061,5.061,0,1,1,5-5.06A5.036,5.036,0,0,1,1373.94,621.97Zm0-8.141a3.08,3.08,0,1,0,3.05,3.081A3.069,3.069,0,0,0,1373.94,613.83Zm-13.44,8.141a5.061,5.061,0,1,1,5-5.06A5.036,5.036,0,0,1,1360.5,621.97Zm0-8.141a3.08,3.08,0,1,0,3.049,3.081A3.069,3.069,0,0,0,1360.5,613.83Zm-13.441,8.141a5.061,5.061,0,1,1,5-5.06A5.036,5.036,0,0,1,1347.06,621.97Zm0-8.141a3.08,3.08,0,1,0,3.05,3.081A3.069,3.069,0,0,0,1347.06,613.83Z" transform="translate(-1342.06 -611.85)" fill="#a3bbc8"/>
</svg>
