<svg xmlns="http://www.w3.org/2000/svg" width="41.765" height="40.414" viewBox="0 0 41.765 40.414">
  <path id="Shape_1" data-name="Shape 1" d="M1408.246,960.169a8.5,8.5,0,0,1-7.519-12.145l-13.218-20.446a.922.922,0,0,1,.115-1.139l6.319-6.419a.878.878,0,0,1,.631-.265h27.345a.879.879,0,0,1,.631.265l6.319,6.419a.924.924,0,0,1,.115,1.139l-13.219,20.446a8.5,8.5,0,0,1-7.519,12.145Zm0-15.029a6.56,6.56,0,1,0,6.66,6.559A6.618,6.618,0,0,0,1408.25,945.14Zm-18.341-17.154,11.87,18.362a8.4,8.4,0,0,1,4.477-2.884l-10.008-15.478Zm30.336,0h0l-10.008,15.478a8.4,8.4,0,0,1,4.477,2.884l11.87-18.362Zm-21.862,0,9.85,15.235h.027l9.85-15.235Zm-3.44-6.419h0l-4.533,4.606h35.673l-4.534-4.606ZM1408.55,956a.9.9,0,0,1-.893-.906v-4.9h-.526a.906.906,0,0,1,0-1.813h1.418a.9.9,0,0,1,.892.907v5.808A.9.9,0,0,1,1408.55,956Z" transform="translate(-1387.364 -919.756)" fill="#a3bbc8"/>
</svg>
