<svg xmlns="http://www.w3.org/2000/svg" width="14.329" height="11.612" viewBox="0 0 14.329 11.612">
  <path id="Path_2" data-name="Path 2" d="M1109.69,1902.277a4.566,4.566,0,0,1-.333.45,5.559,5.559,0,0,1-1.072,1.014l-.05.093a7.963,7.963,0,0,1-.065,1.3,8.7,8.7,0,0,1-2.374,4.92,7.9,7.9,0,0,1-4.049,2.249,9,9,0,0,1-1.636.192c-.089,0-.177,0-.265,0a8.217,8.217,0,0,1-4.416-1.266l-.071-.044a6.555,6.555,0,0,0,.689.037,5.959,5.959,0,0,0,2.249-.438,5.825,5.825,0,0,0,1.4-.817,2.909,2.909,0,0,1-2.71-2.035,2.847,2.847,0,0,0,.544.053,3.089,3.089,0,0,0,.712-.086l.044-.022a2.916,2.916,0,0,1-2.315-2.9,2.885,2.885,0,0,0,1.3.352,2.938,2.938,0,0,1-.859-3.9,8.308,8.308,0,0,0,6.021,3.066c-.016-.12-.031-.219-.047-.323a2.965,2.965,0,0,1,2.444-3.242,3.213,3.213,0,0,1,.533-.045,2.829,2.829,0,0,1,2.028.863.154.154,0,0,0,.108.05.173.173,0,0,0,.045-.007,5.782,5.782,0,0,0,1.711-.652l.039-.022a2.891,2.891,0,0,1-1.246,1.6A5.666,5.666,0,0,0,1109.69,1902.277Z" transform="translate(-1095.361 -1900.888)" fill="#a1a1a1"/>
</svg>
