<?xml version="1.0" encoding="UTF-8"?>
<svg id="SVGDoc" width="20" height="21" xmlns="http://www.w3.org/2000/svg" version="1.1" xmlns:xlink="http://www.w3.org/1999/xlink" xmlns:avocode="https://avocode.com/" viewBox="0 0 20 21"><defs></defs><desc>Generated with Avocode.</desc><g><g><title>Ellipse 32</title><path d="M2.14571,4.88054c-1.18664,0 -2.14588,-0.95919 -2.14588,-2.14552c0,-1.18698 0.95924,-2.14585 2.14588,-2.14585c1.18687,0 2.146,0.95887 2.146,2.14585c0,1.18633 -0.95913,2.14552 -2.146,2.14552zM2.14571,12.74985c-1.18664,0 -2.14588,-0.96017 -2.14588,-2.14683c0,-1.18633 0.95924,-2.1452 2.14588,-2.1452c1.18687,0 2.146,0.95887 2.146,2.1452c0,1.18666 -0.95913,2.14683 -2.146,2.14683zM2.14571,20.61786c-1.18664,0 -2.14588,-0.95887 -2.14588,-2.14585c0,-1.18666 0.95924,-2.14585 2.14588,-2.14585c1.18687,0 2.146,0.95919 2.146,2.14585c0,1.18698 -0.95913,2.14585 -2.146,2.14585zM10.01433,4.88054c-1.18675,0 -2.146,-0.95919 -2.146,-2.14552c0,-1.18698 0.95924,-2.14585 2.146,-2.14585c1.18675,0 2.14588,0.95887 2.14588,2.14585c0,1.18633 -0.95913,2.14552 -2.14588,2.14552zM10.01433,12.74985c-1.18675,0 -2.146,-0.96017 -2.146,-2.14683c0,-1.18633 0.95924,-2.1452 2.146,-2.1452c1.18675,0 2.14588,0.95887 2.14588,2.1452c0,1.18666 -0.95913,2.14683 -2.14588,2.14683zM10.01433,20.61786c-1.18675,0 -2.146,-0.95887 -2.146,-2.14585c0,-1.18666 0.95924,-2.14585 2.146,-2.14585c1.18675,0 2.14588,0.95919 2.14588,2.14585c0,1.18698 -0.95913,2.14585 -2.14588,2.14585zM17.88283,4.88054c-1.18664,0 -2.14588,-0.95919 -2.14588,-2.14552c0,-1.18698 0.95924,-2.14585 2.14588,-2.14585c1.18675,0 2.146,0.95887 2.146,2.14585c0,1.18633 -0.95924,2.14552 -2.146,2.14552zM17.88283,12.74985c-1.18664,0 -2.14588,-0.96017 -2.14588,-2.14683c0,-1.18633 0.95924,-2.1452 2.14588,-2.1452c1.18675,0 2.146,0.95887 2.146,2.1452c0,1.18666 -0.95924,2.14683 -2.146,2.14683zM17.88283,20.61786c-1.18664,0 -2.14588,-0.95887 -2.14588,-2.14585c0,-1.18666 0.95924,-2.14585 2.14588,-2.14585c1.18675,0 2.146,0.95919 2.146,2.14585c0,1.18698 -0.95924,2.14585 -2.146,2.14585z" fill="#ffffff" fill-opacity="1"></path></g></g></svg>