<svg xmlns="http://www.w3.org/2000/svg" width="13.688" height="13.162" viewBox="0 0 13.688 13.162">
  <path id="Shape_1" data-name="Shape 1" d="M638.549,1060.166a.419.419,0,0,1-.427-.411,6.633,6.633,0,0,1,4.89-6.308,3.466,3.466,0,0,1-1.681-2.946,3.638,3.638,0,0,1,7.271,0,3.467,3.467,0,0,1-1.681,2.946,6.634,6.634,0,0,1,4.889,6.308.419.419,0,0,1-.427.411Zm.443-.823h11.947a6.01,6.01,0,0,0-11.947,0Zm3.193-8.843a2.783,2.783,0,1,0,2.781-2.674A2.731,2.731,0,0,0,642.185,1050.5Z" transform="translate(-638.122 -1047.003)" fill="#222933" opacity="0.8"/>
</svg>
