<svg xmlns="http://www.w3.org/2000/svg" width="17.198" height="17.195" viewBox="0 0 17.198 17.195">
  <path id="Union_5" data-name="Union 5" d="M1009.367,1962.194a28.019,28.019,0,0,1-4.779-.254,4.3,4.3,0,0,1-3.424-3.749c-.217-1.361-.266-8.155.163-9.654a4.38,4.38,0,0,1,3.748-3.343,32.631,32.631,0,0,1,4.31-.194c1.466,0,3.114.038,4.2.1a4.748,4.748,0,0,1,3.139,1.284,4.535,4.535,0,0,1,1.372,2.936c.129,1.37.207,7.761-.187,9.247a4.4,4.4,0,0,1-3.8,3.439A41.571,41.571,0,0,1,1009.367,1962.194Zm.305-15.637c-1.813,0-3.448.05-4.166.128a2.955,2.955,0,0,0-2.748,2.59,58.7,58.7,0,0,0-.059,8.68,2.776,2.776,0,0,0,2.122,2.431,29.154,29.154,0,0,0,4.625.254c1.781,0,3.565-.055,4.241-.13a2.948,2.948,0,0,0,2.754-2.6,62.1,62.1,0,0,0,.106-8.447,2.9,2.9,0,0,0-2.575-2.741A38.393,38.393,0,0,0,1009.672,1946.557Zm-.109,11.453a4.367,4.367,0,0,1-4.373-4.413,4.451,4.451,0,0,1,4.434-4.406h.013a4.37,4.37,0,0,1,4.372,4.413A4.456,4.456,0,0,1,1009.563,1958.01Zm.057-7.265a2.887,2.887,0,0,0-2.875,2.824,2.827,2.827,0,0,0,2.8,2.879h.025a2.888,2.888,0,0,0,2.876-2.824,2.823,2.823,0,0,0-2.8-2.88Zm4.589-.691h0a1.032,1.032,0,0,1,.01-2.065h.013a1.011,1.011,0,0,1,.723.3,1.024,1.024,0,0,1,.3.735A1.043,1.043,0,0,1,1014.209,1950.054Z" transform="translate(-1001.002 -1944.999)" fill="#888"/>
</svg>
