<svg xmlns="http://www.w3.org/2000/svg" width="13.689" height="13.163" viewBox="0 0 13.689 13.163">
  <path id="Shape_1" data-name="Shape 1" d="M741.55,2897.166a.42.42,0,0,1-.428-.411,6.634,6.634,0,0,1,4.889-6.308,3.468,3.468,0,0,1-1.681-2.947,3.639,3.639,0,0,1,7.272,0,3.468,3.468,0,0,1-1.681,2.947,6.634,6.634,0,0,1,4.889,6.308.42.42,0,0,1-.428.411Zm.443-.823h11.947a6.01,6.01,0,0,0-11.947,0Zm3.193-8.844a2.782,2.782,0,1,0,2.78-2.674A2.731,2.731,0,0,0,745.186,2887.5Z" transform="translate(-741.121 -2884.003)" fill="#436372"/>
</svg>
