<svg xmlns="http://www.w3.org/2000/svg" width="22" height="9" viewBox="0 0 22 9">
  <path id="Shape_1" data-name="Shape 1" d="M1460.7,1330.526l.008,0h-16.956l.1-2.858a.291.291,0,0,0,.084-.2.288.288,0,0,0-.084-.2l-.173-.173a.289.289,0,0,0-.407,0l-4.192,4.211a.288.288,0,0,0-.084.2.284.284,0,0,0,.084.2l4.192,4.213a.292.292,0,0,0,.407,0l.173-.174a.285.285,0,0,0,.084-.2.276.276,0,0,0-.084-.2l-.113-2.864h16.965a.3.3,0,0,0,.292-.3v-1.37A.293.293,0,0,0,1460.7,1330.526Z" transform="translate(-1439 -1327.003)" fill="#a3bbc8"/>
</svg>
