<?xml version="1.0" encoding="UTF-8"?>
<svg id="SVGDoc" width="16" height="16" xmlns="http://www.w3.org/2000/svg" version="1.1" xmlns:xlink="http://www.w3.org/1999/xlink" xmlns:avocode="https://avocode.com/" viewBox="0 0 16 16"><defs></defs><desc>Generated with Avocode.</desc><g><g><title>icon</title><path d="M3.70206,6.07583c0.35557,-0.06504 0.67989,0.13072 0.74547,0.48466c0.09659,0.5814 0.35557,1.06639 0.77969,1.48896c0.42114,0.38825 0.94208,0.67748 1.49403,0.77683c0.32444,0.06536 0.55218,0.38923 0.4866,0.74317c-0.06546,0.32322 -0.35877,0.55558 -0.71423,0.51506c-0.81104,-0.16145 -1.5564,-0.54937 -2.14279,-1.13044c-0.58331,-0.58107 -0.97321,-1.32718 -1.13537,-2.13572c-0.06557,-0.35394 0.12783,-0.6765 0.4866,-0.74252zM6.98022,-0.00353c3.46527,0 6.27869,2.80013 6.27869,6.25649c0,0.92913 -0.20279,1.81185 -0.56774,2.60437l2.3362,2.03604c1.703,1.74616 0.74547,3.26583 0.2932,3.71684c-0.42114,0.45362 -1.9931,1.41444 -3.73043,-0.29184l-2.05856,-2.35011c-0.7798,0.34511 -1.64062,0.53826 -2.54837,0.53826c-3.46836,0 -6.27857,-2.80111 -6.27857,-6.25682c0,-3.45571 2.80712,-6.25323 6.2756,-6.25323zM12.52592,13.5131c0.29308,0.32387 1.12598,0.86736 1.88072,0.22615c0.20908,-0.17615 0.6332,-1.06868 -0.22774,-1.87361l-2.16145,-1.87982c-0.38372,0.51244 -0.84217,0.96671 -1.36299,1.33993zM6.98022,11.2009c2.74166,0 4.96548,-2.21611 4.96548,-4.94794c0,-2.73182 -2.22382,-4.94761 -4.96548,-4.94761c-2.74178,0 -4.96559,2.21579 -4.96559,4.94761c0,2.73182 2.22073,4.94794 4.96559,4.94794z" fill="#243f4d" fill-opacity="1"></path></g></g></svg>