
<svg width="20" height="20" viewBox="0 0 20 20">
<path d="M19.45042,19.4482c-0.73116,0.73271 -1.91895,0.73271 -2.65137,0l-4.58851,-4.58812c1.06316,-0.68238 1.9677,-1.58765 2.65125,-2.6511l4.58862,4.5891c0.73242,0.73239 0.73242,1.92035 0,2.65012zM7.49981,14.99865c-4.14173,0 -7.49989,-3.35832 -7.49989,-7.50001c0,-4.14137 3.35815,-7.501 7.49989,-7.501c4.14185,0 7.5,3.35963 7.5,7.501c0,4.14169 -3.35815,7.50001 -7.5,7.50001zM13.12481,7.49864c0,-3.1021 -2.52319,-5.62607 -5.625,-5.62607c-3.10169,0 -5.62489,2.52397 -5.62489,5.62607c0,3.1021 2.52319,5.62477 5.62489,5.62477c3.10181,0 5.625,-2.52266 5.625,-5.62477zM7.49981,3.12328v1.25071c-1.72291,0 -3.12492,1.4017 -3.12492,3.12465h-1.25004c0,-2.41187 1.96289,-4.37536 4.37496,-4.37536z" fill="#a3bbc8" fill-opacity="1">
</path>
</svg>