<svg id="Компонент_4_1" data-name="Компонент 4 – 1" xmlns="http://www.w3.org/2000/svg" width="60.337" height="63.957" viewBox="0 0 60.337 63.957">
  <ellipse id="Ellipse_2" data-name="Ellipse 2" cx="16.88" cy="16.87" rx="16.88" ry="16.87" transform="translate(26.577 29.588)" fill="#a3bbc8"/>
  <path id="Shape_1" data-name="Shape 1" d="M1415.659,1333a1,1,0,0,1-.818-.591l-7.08-15.944-.928.572a3.362,3.362,0,0,1-3.541,0l-.9-.552-7.071,15.925a1,1,0,0,1-.818.591c-.031,0-.063,0-.094,0a1,1,0,0,1-.819-.432l-3.209-4.645-5.571.672a.993.993,0,0,1-.923-.4,1.014,1.014,0,0,1-.107-1.009l6.924-15.592-1.022-.25a3.4,3.4,0,0,1-2.506-2.529l-.593-2.473a1.418,1.418,0,0,0-.539-.813l-2.036-1.495a3.436,3.436,0,0,1-1.359-3.31l.392-2.512a1.423,1.423,0,0,0-.188-.958l-1.313-2.174a3.448,3.448,0,0,1,0-3.575l1.314-2.174a1.43,1.43,0,0,0,.187-.958l-.392-2.512a3.436,3.436,0,0,1,1.36-3.31l2.036-1.495a1.417,1.417,0,0,0,.539-.813l.593-2.473a3.4,3.4,0,0,1,2.506-2.529l2.45-.6a1.405,1.405,0,0,0,.805-.544l1.481-2.056a3.372,3.372,0,0,1,3.279-1.372l2.488.4a1.393,1.393,0,0,0,.949-.19l2.155-1.327a3.361,3.361,0,0,1,3.541,0l2.155,1.327a1.394,1.394,0,0,0,.949.19l2.489-.4a3.372,3.372,0,0,1,3.279,1.373l1.481,2.055a1.405,1.405,0,0,0,.8.544l2.451.6a3.405,3.405,0,0,1,2.506,2.529l.593,2.473a1.417,1.417,0,0,0,.538.814l2.036,1.494a3.434,3.434,0,0,1,1.359,3.31l-.392,2.511a1.436,1.436,0,0,0,.188.958l1.314,2.174a3.448,3.448,0,0,1,0,3.575l-1.314,2.174a1.435,1.435,0,0,0-.188.958l.392,2.512a3.436,3.436,0,0,1-1.359,3.31l-2.037,1.495a1.416,1.416,0,0,0-.538.813l-.593,2.473a3.4,3.4,0,0,1-2.506,2.529l-.984.24,6.927,15.6a1.014,1.014,0,0,1-.107,1.009,1,1,0,0,1-.922.4l-5.571-.672-3.209,4.645a1,1,0,0,1-.819.432C1415.721,1333,1415.69,1333,1415.659,1333Zm-6.131-17.483,6.414,14.443,2.543-3.682a.994.994,0,0,1,.937-.424l4.415.533-6.319-14.229a1.393,1.393,0,0,0-.336.33l-1.481,2.056a3.455,3.455,0,0,1-.442.5l3.334,7.505a1.013,1.013,0,0,1-.5,1.332.979.979,0,0,1-.408.088,1,1,0,0,1-.912-.6l-3.311-7.456a3.368,3.368,0,0,1-1.037,0l-2.488-.4a1.366,1.366,0,0,0-.214-.017A1.457,1.457,0,0,0,1409.528,1315.512Zm-17.849,10.761,2.543,3.682,6.412-14.437a1.376,1.376,0,0,0-.446,0l-2.489.4a3.4,3.4,0,0,1-1,.009l-3.309,7.45a.993.993,0,0,1-1.319.508,1.012,1.012,0,0,1-.5-1.332l3.32-7.477a3.451,3.451,0,0,1-.471-.53l-1.481-2.056a1.428,1.428,0,0,0-.3-.307l-6.308,14.206,4.415-.533a.966.966,0,0,1,.12-.007A1,1,0,0,1,1391.679,1326.273Zm10.5-12.289,2.155,1.327a1.388,1.388,0,0,0,1.462,0l2.154-1.326a3.377,3.377,0,0,1,2.3-.461l2.488.4a1.39,1.39,0,0,0,1.354-.566l1.48-2.055a3.407,3.407,0,0,1,1.951-1.318l2.45-.6a1.4,1.4,0,0,0,1.034-1.044l.593-2.473a3.442,3.442,0,0,1,1.3-1.969l2.037-1.495a1.415,1.415,0,0,0,.561-1.366l-.391-2.512a3.463,3.463,0,0,1,.456-2.321l1.313-2.174a1.422,1.422,0,0,0,0-1.476l-1.313-2.174a3.463,3.463,0,0,1-.456-2.321l.391-2.511a1.417,1.417,0,0,0-.561-1.367l-2.036-1.494a3.442,3.442,0,0,1-1.305-1.969l-.593-2.473a1.407,1.407,0,0,0-1.034-1.045l-2.45-.6a3.4,3.4,0,0,1-1.95-1.317l-1.481-2.056a1.389,1.389,0,0,0-1.354-.566l-2.488.394a3.369,3.369,0,0,1-2.3-.46l-2.155-1.326a1.385,1.385,0,0,0-1.462,0l-2.155,1.326a3.375,3.375,0,0,1-2.3.46l-2.488-.4a1.392,1.392,0,0,0-1.354.567l-1.48,2.055a3.407,3.407,0,0,1-1.95,1.318l-2.451.6a1.405,1.405,0,0,0-1.034,1.044l-.593,2.473a3.441,3.441,0,0,1-1.3,1.968l-2.036,1.5a1.418,1.418,0,0,0-.562,1.366l.391,2.512a3.464,3.464,0,0,1-.455,2.32l-1.314,2.175a1.425,1.425,0,0,0,0,1.476l1.314,2.174a3.467,3.467,0,0,1,.455,2.321l-.391,2.511a1.415,1.415,0,0,0,.561,1.366l2.036,1.495a3.434,3.434,0,0,1,1.305,1.969l.593,2.473a1.4,1.4,0,0,0,1.034,1.044l2.45.6a3.4,3.4,0,0,1,1.95,1.318l1.481,2.056a1.392,1.392,0,0,0,1.354.566l2.488-.4a3.383,3.383,0,0,1,2.3.46Zm-8.224-6.33a1.013,1.013,0,0,1-.175-1.414.992.992,0,0,1,1.4-.176,15.944,15.944,0,0,0,21.179-1.344,16.276,16.276,0,0,0,2.982-18.75,1.012,1.012,0,0,1,.441-1.354.994.994,0,0,1,1.342.446,18.3,18.3,0,0,1-3.353,21.082,17.924,17.924,0,0,1-23.818,1.509Zm-3.188-3.217a18.354,18.354,0,0,1,1.495-24.043,17.878,17.878,0,0,1,20.89-3.382,1.012,1.012,0,0,1,.441,1.354.994.994,0,0,1-1.341.445,15.9,15.9,0,0,0-18.577,3.008,16.321,16.321,0,0,0-1.332,21.38,1.014,1.014,0,0,1-.175,1.415.992.992,0,0,1-1.4-.176Zm19.576-.3-5.279-2.984-5.279,2.984a1.808,1.808,0,0,1-2.651-1.944l1.179-5.991-4.441-4.146a1.813,1.813,0,0,1-.491-1.9,1.79,1.79,0,0,1,1.5-1.246l6.008-.719,2.534-5.546a1.8,1.8,0,0,1,3.277,0l2.534,5.546,6.008.719a1.79,1.79,0,0,1,1.5,1.246,1.813,1.813,0,0,1-.491,1.9l-4.441,4.146,1.179,5.991a1.813,1.813,0,0,1-.709,1.828,1.775,1.775,0,0,1-1.942.116Zm-4.792-5.018,5.4,3.052-1.207-6.13a1.014,1.014,0,0,1,.3-.936l4.546-4.244-6.148-.736a1,1,0,0,1-.789-.579l-2.593-5.674-2.594,5.674a1,1,0,0,1-.788.579l-6.149.736,4.546,4.244a1.011,1.011,0,0,1,.3.936l-1.206,6.13,5.4-3.052a.987.987,0,0,1,.975,0Zm11.5-16.559c-.22-.251-.452-.5-.688-.739s-.482-.472-.732-.694a1.015,1.015,0,0,1-.086-1.423.992.992,0,0,1,1.409-.087c.28.249.556.511.821.779s.525.546.773.829a1.016,1.016,0,0,1-.087,1.423.991.991,0,0,1-1.409-.088Z" transform="translate(-1381.043 -1269.042)" fill="#243f4d"/>
</svg>
