<?xml version="1.0" encoding="UTF-8"?>
<svg id="SVGDoc" width="52" height="54" xmlns="http://www.w3.org/2000/svg" version="1.1" xmlns:xlink="http://www.w3.org/1999/xlink" xmlns:avocode="https://avocode.com/" viewBox="0 0 52 54"><defs></defs><desc>Generated with Avocode.</desc><g><g opacity="0.34"><title>Ellipse 1</title><path d="M41.9843,33.59364c5.41065,0 9.79694,4.39301 9.79694,9.81254c0,5.4192 -4.38629,9.81254 -9.79694,9.81254c-5.41065,0 -9.79683,-4.39334 -9.79683,-9.81254c0,-5.41953 4.38618,-9.81254 9.79683,-9.81254z" fill="#a3bbc8" fill-opacity="1"></path></g><g><title>Shape 1</title><path d="M50.01908,24.64977c0,13.53983 -11.01574,24.55635 -24.5557,24.55635c-5.36053,0 -10.45338,-1.69681 -14.72832,-4.90611c-0.41428,-0.31014 -0.49793,-0.89873 -0.18723,-1.31248c0.31094,-0.4144 0.8987,-0.49774 1.31264,-0.18694c3.94798,2.96353 8.65173,4.52962 13.60268,4.52962c12.5061,0 22.68082,-10.17399 22.68082,-22.68044c0,-4.25346 -1.18378,-8.39875 -3.4235,-11.98813c-0.27397,-0.43924 -0.14008,-1.01769 0.29926,-1.29222c0.43934,-0.27387 1.01761,-0.13988 1.29181,0.29969c2.42546,3.88743 3.70754,8.37685 3.70754,12.98066zM24.21883,34.5463c0,0.51702 -0.41977,0.9373 -0.93761,0.9373h-9.81331c-0.37903,0 -0.72086,-0.22811 -0.86597,-0.57846c-0.14511,-0.35067 -0.06489,-0.75396 0.20325,-1.02227l6.34369,-6.3431c2.06039,-2.06022 3.19496,-4.79956 3.19496,-7.71375c0,-2.18899 -1.78059,-3.96913 -3.96904,-3.96913c-2.18857,0 -3.96915,1.78015 -3.96915,3.96913c0,0.518 -0.41965,0.93762 -0.9375,0.93762c-0.51785,0 -0.93761,-0.41963 -0.93761,-0.93762c0,-3.22237 2.62184,-5.84438 5.84427,-5.84438c3.22254,0 5.84415,2.62201 5.84415,5.84438c0,3.41453 -1.32969,6.62514 -3.74416,9.03897l-4.74323,4.74335h7.55001c0.51773,0 0.93727,0.41995 0.93727,0.93795zM39.25889,28.10777c0,0.51767 -0.41965,0.93795 -0.9375,0.93795h-2.60124v5.50058c0,0.51702 -0.41977,0.9373 -0.9375,0.9373c-0.51785,0 -0.93773,-0.42028 -0.93773,-0.9373v-5.50058h-6.9381c-0.33737,0 -0.64888,-0.18138 -0.81539,-0.47519c-0.16651,-0.29315 -0.16262,-0.65395 0.01041,-0.94318l7.87548,-13.18884c0.26562,-0.44381 0.84114,-0.58924 1.28586,-0.32387c0.29091,0.17354 0.45273,0.48041 0.45593,0.79611c0.00011,0.00327 0.00092,0.00523 0.00092,0.0085v7.60884c0,0.518 -0.41965,0.9373 -0.9375,0.9373c-0.51785,0 -0.93761,-0.4193 -0.93761,-0.9373v-4.20967l-5.28614,8.85204h5.28614v-1.51674c0,-0.51767 0.41977,-0.93795 0.93761,-0.93795c0.51785,0 0.9375,0.42028 0.9375,0.93795v1.51674h2.60136c0.51762,0 0.9375,0.41963 0.9375,0.9373zM43.74703,8.59872c0.01247,0.51734 -0.39722,0.9471 -0.91484,0.95952l-4.06025,0.09608c-0.00744,0 -0.01522,0 -0.02266,0c-0.50766,0 -0.9248,-0.40459 -0.93693,-0.91475c-0.01236,-0.51767 0.39734,-0.94776 0.91507,-0.95919l1.84261,-0.04379c-4.13509,-3.68677 -9.52938,-5.76726 -15.10689,-5.76726c-12.50622,0 -22.68093,10.17432 -22.68093,22.6811c0,6.13982 2.41482,11.89074 6.79928,16.19257c0.36964,0.36243 0.37537,0.9556 0.0127,1.32522c-0.18356,0.18792 -0.42618,0.28106 -0.66925,0.28106c-0.23678,0 -0.4739,-0.08889 -0.65632,-0.26864c-4.74712,-4.65609 -7.36153,-10.88219 -7.36153,-17.53086c0,-13.54016 11.01585,-24.55537 24.55627,-24.55537c3.4845,0 6.85226,0.71474 10.00923,2.12591c2.33013,1.0409 4.45576,2.42037 6.34506,4.11163l-0.04154,-1.74877c-0.01225,-0.51832 0.39745,-0.94743 0.91507,-0.96017c0.51647,-0.01078 0.94723,0.3974 0.9597,0.91507z" fill="#a3bbc8" fill-opacity="1"></path></g></g></svg>