<svg id="Компонент_1_1" data-name="Компонент 1 – 1" xmlns="http://www.w3.org/2000/svg" width="127" height="127" viewBox="0 0 127 127">
  <circle id="Ellipse_11" data-name="Ellipse 11" cx="63.5" cy="63.5" r="63.5" fill="#a3bbc8" opacity="0.4"/>
  <circle id="Ellipse_11-2" data-name="Ellipse 11" cx="49" cy="49" r="49" transform="translate(14 14)" fill="#a3bbc8"/>
  <path id="Form_24" data-name="Form 24" d="M970.684,3900.74l-16.044,9.8a3.189,3.189,0,0,1-1.663.46,3.23,3.23,0,0,1-1.4-.316,2.681,2.681,0,0,1-1.579-2.385V3888.7a2.68,2.68,0,0,1,1.579-2.386,3.241,3.241,0,0,1,3.062.143l16.044,9.8a2.569,2.569,0,0,1,0,4.485Z" transform="translate(-897 -3836)" fill="#fff"/>
</svg>
