<?xml version="1.0" encoding="UTF-8"?>
<svg id="SVGDoc" width="22" height="9" xmlns="http://www.w3.org/2000/svg" version="1.1" xmlns:xlink="http://www.w3.org/1999/xlink" xmlns:avocode="https://avocode.com/" viewBox="0 0 22 9"><defs></defs><desc>Generated with Avocode.</desc><g><g><title>Shape 1</title><path d="M0.29591,5.47196l-0.00813,-0.00033v0h16.95625v0l-0.10048,2.85765c-0.05424,0.05392 -0.084,0.12713 -0.084,0.20491c0,0.0768 0.02975,0.15066 0.084,0.20458l0.17258,0.17256c0.05413,0.05588 0.12634,0.08595 0.20359,0.08595c0.07702,0 0.14946,-0.03007 0.2037,-0.08432l4.19231,-4.2113c0.05447,-0.05458 0.08411,-0.12778 0.08411,-0.20556c0,-0.0768 -0.02964,-0.15033 -0.08411,-0.20328l-4.19231,-4.21294c-0.05424,-0.05327 -0.12669,-0.08366 -0.2037,-0.08366c-0.07725,0 -0.14946,0.03039 -0.20359,0.08366l-0.17258,0.17354c-0.05424,0.05523 -0.084,0.1268 -0.084,0.2036c0,0.07745 0.02975,0.14609 0.084,0.20132l0.11295,2.86418v0h-16.96461c-0.15873,0 -0.29228,0.13595 -0.29228,0.29511v1.37c0,0.15916 0.13744,0.28433 0.29629,0.28433z" fill="#ffffff" fill-opacity="1"></path></g></g></svg>