<?xml version="1.0" encoding="UTF-8"?>
<svg id="SVGDoc" width="50" height="39" xmlns="http://www.w3.org/2000/svg" version="1.1" xmlns:xlink="http://www.w3.org/1999/xlink" xmlns:avocode="https://avocode.com/" viewBox="0 0 50 39"><defs></defs><desc>Generated with Avocode.</desc><g><g><title>Path 324</title><path d="M0.08982,27.82647c0.08812,-0.1804 6.41132,-12.93196 6.58253,-13.25681c0.17086,-0.32485 0.37491,-0.38695 0.50674,-0.45165l35.1939,-14.05031c0,0 0.57026,-0.18759 0.96508,0.05131c0.39619,0.23923 0.44849,0.64382 0.44849,0.6448l6.25122,37.07914c0,0 0.09373,0.47551 -0.30979,0.80428c-0.40501,0.32975 -0.9034,0.21275 -0.90843,0.2121l-48.04081,-9.79816c-0.01419,-0.00359 -0.38132,-0.07549 -0.6221,-0.38695c-0.23895,-0.31145 -0.15667,-0.66637 -0.06683,-0.84775zM36.03194,21.80626l-10.33859,2.1586l20.04948,11.14495zM2.73558,26.92446l17.83298,-3.71455l-12.52121,-6.98267zM23.31046,22.6393l12.37118,-2.58378l5.55874,-17.58708l-31.53099,12.58685zM42.48721,5.13295l-4.90276,15.52031l9.77898,13.39702zM22.94939,24.5371l-17.52296,3.65017l38.05012,7.76048z" fill="#a3bbc8" fill-opacity="1"></path></g></g></svg>