<svg xmlns="http://www.w3.org/2000/svg" width="18.024" height="11.407" viewBox="0 0 18.024 11.407">
  <path id="Union_1" data-name="Union 1" d="M1170.267,1912.727a5.659,5.659,0,0,1-5.237-4.486,5.16,5.16,0,0,1-.109-1.535,5.593,5.593,0,0,1,1.287-3.259,5.654,5.654,0,0,1,3.07-1.952,4.578,4.578,0,0,1,.944-.148c.181-.005.363-.017.544-.017a5.367,5.367,0,0,1,2.7.741,6.67,6.67,0,0,1,1.009.741c-.569.56-1.116,1.108-1.675,1.657a3.06,3.06,0,0,0-1.667-.806,3.354,3.354,0,0,0-3.772,2.627,3.136,3.136,0,0,0-.079,1.031,3.415,3.415,0,0,0,2.331,2.967,3.319,3.319,0,0,0,1,.15c.079,0,.157,0,.237-.007a3.35,3.35,0,0,0,1.666-.533,2.63,2.63,0,0,0,1.132-1.716h-3.055c0-.076.012-1.5.016-2.2l.006-.093h5.364a6.167,6.167,0,0,1-1.013,4.811,5.016,5.016,0,0,1-2.822,1.843,6.124,6.124,0,0,1-1.54.2C1170.489,1912.736,1170.378,1912.732,1170.267,1912.727Zm10.589-3.219h-1.5v-.056l.014-1.931h-1.991v-.06l.012-1.443v-.055h1.992l.014-1.936v-.055h1.558v.055l-.015,1.936h1.991v.055l-.011,1.443v.06h-1.991l-.014,1.931v.056Z" transform="translate(-1164.905 -1901.328)" fill="#a1a1a1"/>
</svg>
