<svg xmlns="http://www.w3.org/2000/svg" width="13.66" height="13.657" viewBox="0 0 13.66 13.657">
  <path id="Union_2" data-name="Union 2" d="M1137.136,1913.663a22.256,22.256,0,0,1-3.8-.2,3.414,3.414,0,0,1-2.72-2.978,38.485,38.485,0,0,1,.13-7.668,3.479,3.479,0,0,1,2.976-2.655,26.013,26.013,0,0,1,3.424-.154c1.176,0,2.485.03,3.334.077a3.774,3.774,0,0,1,2.494,1.021,3.6,3.6,0,0,1,1.09,2.331,43.546,43.546,0,0,1-.149,7.345,3.493,3.493,0,0,1-3.016,2.731A33.034,33.034,0,0,1,1137.136,1913.663Zm.243-12.42c-1.443,0-2.742.04-3.31.1a2.345,2.345,0,0,0-2.182,2.057,46.742,46.742,0,0,0-.048,6.895,2.2,2.2,0,0,0,1.686,1.93,23.071,23.071,0,0,0,3.675.2c1.41,0,2.827-.044,3.368-.1a2.339,2.339,0,0,0,2.187-2.067,49.184,49.184,0,0,0,.085-6.709,2.306,2.306,0,0,0-2.046-2.177A32.28,32.28,0,0,0,1137.379,1901.243Zm-.087,9.1a3.468,3.468,0,0,1-3.473-3.5,3.535,3.535,0,0,1,3.522-3.5h.01a3.472,3.472,0,0,1,3.473,3.505A3.538,3.538,0,0,1,1137.291,1910.34Zm.046-5.77a2.293,2.293,0,0,0-2.284,2.243,2.245,2.245,0,0,0,2.226,2.288h.021a2.293,2.293,0,0,0,2.284-2.244,2.242,2.242,0,0,0-2.227-2.287Zm3.645-.549h0a.82.82,0,0,1,.007-1.64h.01a.8.8,0,0,1,.574.239.814.814,0,0,1,.236.583A.827.827,0,0,1,1140.982,1904.021Z" transform="translate(-1130.492 -1900.006)" fill="#a1a1a1"/>
</svg>
