<svg xmlns="http://www.w3.org/2000/svg" width="8.116" height="15.432" viewBox="0 0 8.116 15.432">
  <path id="Path_1" data-name="Path 1" d="M1069.19,1899.125c.413,0,.828.022,1.24.041.268.011.537.049.789.077l-.019,2.485h-.2c-.272,0-.545,0-.818,0-.2,0-.409,0-.614.009-.659.022-1.143.269-1.177,1.091-.021.593-.036,1.9-.037,1.969.034,0,.685,0,1.34,0,.328,0,.648,0,.871,0h.532c-.134.954-.256,1.87-.389,2.792h-2.353l-.053,6.971h-2.891l.053-6.982H1063.1l.021-2.776h2.375v-.208c0-.559,0-1.119.018-1.678a6.935,6.935,0,0,1,.09-1.064,3.158,3.158,0,0,1,1.266-2.073,3.638,3.638,0,0,1,2.084-.647Z" transform="translate(-1063.103 -1899.125)" fill="#a1a1a1"/>
</svg>
