<svg xmlns="http://www.w3.org/2000/svg" width="22" height="17.999" viewBox="0 0 22 17.999">
  <path id="Forma_1" data-name="Forma 1" d="M1201.99,1330.82a6.211,6.211,0,0,0-1.849-4.1A5.873,5.873,0,0,0,1196,1325c-2.311,0-3.948,1.785-4.827,2.745l-.156.17-.083-.094c-.8-.916-2.476-2.82-4.938-2.82a5.873,5.873,0,0,0-4.139,1.721,6.211,6.211,0,0,0-1.849,4.1,6.829,6.829,0,0,0,1.27,4.338,29.144,29.144,0,0,0,4.763,4.748c1.7,1.411,3.951,3.093,4.966,3.093,1.031,0,3.269-1.679,4.965-3.087a29.022,29.022,0,0,0,4.745-4.754A6.9,6.9,0,0,0,1201.99,1330.82Zm-2.376,3.61a27.025,27.025,0,0,1-4.43,4.417c-2.406,2-3.831,2.8-4.173,2.826-.341-.035-1.77-.833-4.188-2.842a27.1,27.1,0,0,1-4.437-4.4,5.587,5.587,0,0,1-1.054-3.539,4.807,4.807,0,0,1,4.666-4.569c1.863,0,3.216,1.543,3.943,2.37.427.487.663.755,1.059.755s.672-.287,1.151-.81c.794-.866,2.122-2.316,3.851-2.316a4.807,4.807,0,0,1,4.666,4.569A5.528,5.528,0,0,1,1199.614,1334.43Z" transform="translate(-1180 -1324.999)" fill="#a3bbc8"/>
</svg>
