<?xml version="1.0" encoding="UTF-8"?>
<svg id="SVGDoc" width="19" height="17" xmlns="http://www.w3.org/2000/svg" version="1.1" xmlns:xlink="http://www.w3.org/1999/xlink" xmlns:avocode="https://avocode.com/" viewBox="0 0 19 17"><defs></defs><desc>Generated with Avocode.</desc><g><g><title>Shape 16</title><path d="M5.52649,16.97777c-0.53684,0 -1.06384,-0.20981 -1.46152,-0.60656c-0.59681,-0.59382 -0.77419,-1.48046 -0.45261,-2.26023c0.32204,-0.77683 1.07346,-1.28012 1.91483,-1.28012c0.00183,0 0.0032,0 0.00538,0c0.5508,0 1.06956,0.21374 1.46107,0.60264c0.3923,0.39316 0.60837,0.91213 0.60837,1.46608c0.00195,0.84089 -0.49908,1.59354 -1.27659,1.91708c-0.25887,0.1085 -0.53032,0.16112 -0.79891,0.16112zM5.53255,14.01456c-0.00217,0 -0.00355,0 -0.00401,0c-0.36106,0 -0.6831,0.2157 -0.82146,0.54904c-0.13733,0.33335 -0.06168,0.71507 0.19398,0.96933c0.25578,0.25393 0.63652,0.3291 0.96874,0.19151c0.3336,-0.13955 0.54817,-0.46309 0.54726,-0.82389c0,-0.23694 -0.09258,-0.4595 -0.26047,-0.62846c-0.16605,-0.16471 -0.38841,-0.25753 -0.62405,-0.25753zM13.91844,16.97777c-0.53696,0 -1.0643,-0.20981 -1.46164,-0.60656c-0.59681,-0.59513 -0.77419,-1.48046 -0.45204,-2.26023c0.32101,-0.77683 1.07208,-1.28012 1.91368,-1.28012c0.54565,-0.03987 1.07986,0.21798 1.46759,0.6033c0.3923,0.3925 0.60734,0.91148 0.60734,1.46543c0.00286,0.83958 -0.49747,1.59354 -1.27476,1.91708c-0.25921,0.1085 -0.53112,0.15981 -0.80017,0.16112zM13.92428,14.01456c-0.00092,0 -0.00172,0 -0.00172,0c-0.33085,0.03235 -0.6847,0.21504 -0.8226,0.54839c-0.1387,0.334 -0.0626,0.71572 0.19283,0.96998c0.25646,0.25524 0.63824,0.3291 0.96989,0.19151c0.33268,-0.13955 0.54771,-0.46309 0.54668,-0.82357c0,-0.23727 -0.09258,-0.45982 -0.26035,-0.62879c-0.16479,-0.16308 -0.3923,-0.25753 -0.62473,-0.25753zM2.64532,14.1783c-0.084,0 -0.16926,-0.01765 -0.25017,-0.05588c-0.29652,-0.13857 -0.4248,-0.49087 -0.28599,-0.78729c0.57884,-1.2396 1.62712,-1.97362 3.05351,-2.15075l-1.0548,-5.3911c-0.0626,-0.3206 0.1466,-0.63238 0.46761,-0.69546c0.32101,-0.06602 0.63148,0.14805 0.69523,0.468l1.09131,5.57803h9.42307l1.80691,-6.77122c-0.00813,0 -13.29414,0 -13.30238,0c-2.12791,0 -3.96824,-1.58373 -4.28307,-3.69298c-0.04887,-0.32452 0.17441,-0.62552 0.49828,-0.67323c0.31494,-0.05523 0.62428,0.17419 0.67303,0.49872c0.229,1.53144 1.56681,2.68182 3.1152,2.68182c0.00572,0 0.01202,0 0.01774,0h14.05243c0.18414,0 0.35774,0.08595 0.46955,0.23204c0.11272,0.14609 0.15038,0.33629 0.10323,0.5131l-2.12311,7.95592c-0.06935,0.25851 -0.30453,0.43956 -0.57278,0.43956h-10.3553c-0.0087,-0.00196 -0.01648,-0.00196 -0.02254,0c-1.32957,0.00098 -2.20562,0.49349 -2.67998,1.50987c-0.10025,0.21406 -0.3138,0.34087 -0.53696,0.34087z" fill="#243f4d" fill-opacity="1"></path></g></g></svg>