
<svg width="22" height="20" viewBox="0 0 22 20">
<path d="M-0.00019,0.81402c0,-0.44871 0.36633,-0.81605 0.8139,-0.81605h2.94365c0.36621,0 0.6918,0.24511 0.78667,0.59839l3.32336,12.03715h9.06132l3.0114,-6.92809h-10.03796c-0.44769,0 -0.8139,-0.36701 -0.8139,-0.81638c0,-0.44871 0.36621,-0.81507 0.8139,-0.81507h11.28582c0.27122,0 0.52895,0.13661 0.67818,0.36636c0.14923,0.23236 0.17647,0.51669 0.06786,0.7752l-3.7167,8.56019c-0.13561,0.29903 -0.42046,0.48858 -0.74604,0.48858h-10.21431c-0.36621,0 -0.6918,-0.24413 -0.78678,-0.59774l-3.32336,-12.0378h-2.33311c-0.44758,0 -0.8139,-0.36701 -0.8139,-0.81474zM4.63902,18.15043c0,-1.01933 0.82741,-1.84747 1.84479,-1.84747c1.01738,0 1.84479,0.82814 1.84479,1.84747c0,1.019 -0.82741,1.84812 -1.84479,1.84812c-1.01738,0 -1.84479,-0.82912 -1.84479,-1.84812zM16.18267,18.27299c-0.06786,-1.00593 0.6918,-1.90205 1.70918,-1.97002c1.01727,-0.06798 1.89903,0.70591 1.96678,1.71217c0.02724,0.50198 -0.12199,0.97848 -0.44758,1.34451c-0.32558,0.38041 -0.77316,0.59807 -1.2616,0.63892c-0.04063,0 -0.09487,0 -0.13561,0c-0.96313,0 -1.76342,-0.76082 -1.83117,-1.72557z" fill="#ffffff" fill-opacity="1">
</path>
</svg>