<svg xmlns="http://www.w3.org/2000/svg" width="18" height="14.809" viewBox="0 0 18 14.809">
  <path id="Shape_3" data-name="Shape 3" d="M950.836,1132.969a.411.411,0,0,1-.265-.38v-2.071h-1.285a1.261,1.261,0,0,1-1.286-1.232v-9.862a1.262,1.262,0,0,1,1.286-1.233h15.429a1.262,1.262,0,0,1,1.285,1.233v9.862a1.261,1.261,0,0,1-1.285,1.232H953.766l-2.463,2.362a.44.44,0,0,1-.3.121A.451.451,0,0,1,950.836,1132.969Zm-1.978-13.545v9.862a.42.42,0,0,0,.428.41H951a.42.42,0,0,1,.428.411v1.49l1.857-1.78a.436.436,0,0,1,.3-.121h11.126a.421.421,0,0,0,.428-.41v-9.862a.421.421,0,0,0-.428-.41H949.286A.42.42,0,0,0,948.857,1119.424Zm10.862,4.927a.62.62,0,1,1,.62.64A.63.63,0,0,1,959.72,1124.35Zm-3.34,0a.62.62,0,1,1,.62.64A.63.63,0,0,1,956.38,1124.35Zm-3.589,0a.62.62,0,1,1,.619.64A.63.63,0,0,1,952.79,1124.35Z" transform="translate(-948 -1118.191)" fill="#222933" opacity="0.8"/>
</svg>
