<?xml version="1.0" encoding="UTF-8"?>
<svg xmlns="http://www.w3.org/2000/svg" xmlns:xlink="http://www.w3.org/1999/xlink" width="15pt" height="15pt" viewBox="0 0 15 15" version="1.1">
<g id="surface1">
<path style=" stroke:none;fill-rule:nonzero;fill:rgb(27.058824%,34.901961%,41.960784%);fill-opacity:1;" d="M 12.488281 5.089844 L 0.539062 5.089844 C 0.3125 5.089844 0.128906 4.902344 0.128906 4.675781 L 0.128906 2.007812 C 0.128906 1.78125 0.3125 1.59375 0.539062 1.59375 L 12.488281 1.59375 C 12.71875 1.59375 12.902344 1.78125 12.902344 2.007812 L 12.902344 4.675781 C 12.902344 4.902344 12.71875 5.089844 12.488281 5.089844 Z M 0.953125 4.261719 L 12.078125 4.261719 L 12.078125 2.421875 L 0.953125 2.421875 Z M 0.953125 4.261719 "/>
<path style=" stroke:none;fill-rule:nonzero;fill:rgb(27.058824%,34.901961%,41.960784%);fill-opacity:1;" d="M 2.945312 3.570312 C 2.71875 3.570312 2.53125 3.386719 2.53125 3.15625 L 2.53125 0.894531 C 2.53125 0.667969 2.71875 0.480469 2.945312 0.480469 C 3.171875 0.480469 3.359375 0.667969 3.359375 0.894531 L 3.359375 3.15625 C 3.359375 3.386719 3.171875 3.570312 2.945312 3.570312 Z M 2.945312 3.570312 "/>
<path style=" stroke:none;fill-rule:nonzero;fill:rgb(27.058824%,34.901961%,41.960784%);fill-opacity:1;" d="M 6.515625 3.570312 C 6.289062 3.570312 6.101562 3.386719 6.101562 3.15625 L 6.101562 0.894531 C 6.101562 0.667969 6.289062 0.480469 6.515625 0.480469 C 6.742188 0.480469 6.929688 0.667969 6.929688 0.894531 L 6.929688 3.15625 C 6.929688 3.386719 6.742188 3.570312 6.515625 3.570312 Z M 6.515625 3.570312 "/>
<path style=" stroke:none;fill-rule:nonzero;fill:rgb(27.058824%,34.901961%,41.960784%);fill-opacity:1;" d="M 10.085938 3.570312 C 9.855469 3.570312 9.671875 3.386719 9.671875 3.15625 L 9.671875 0.894531 C 9.671875 0.667969 9.855469 0.480469 10.085938 0.480469 C 10.3125 0.480469 10.496094 0.667969 10.496094 0.894531 L 10.496094 3.15625 C 10.496094 3.386719 10.3125 3.570312 10.085938 3.570312 Z M 10.085938 3.570312 "/>
<path style=" stroke:none;fill-rule:nonzero;fill:rgb(39.215686%,49.803922%,58.039216%);fill-opacity:1;" d="M 2.496094 6.789062 L 3.75 6.789062 L 3.75 8.042969 L 2.496094 8.042969 Z M 2.496094 6.789062 "/>
<path style=" stroke:none;fill-rule:nonzero;fill:rgb(39.215686%,49.803922%,58.039216%);fill-opacity:1;" d="M 2.496094 10.359375 L 3.75 10.359375 L 3.75 11.613281 L 2.496094 11.613281 Z M 2.496094 10.359375 "/>
<path style=" stroke:none;fill-rule:nonzero;fill:rgb(39.215686%,49.803922%,58.039216%);fill-opacity:1;" d="M 10.636719 7.921875 C 10.785156 7.988281 10.960938 7.960938 11.082031 7.855469 L 12.761719 6.386719 C 12.851562 6.308594 12.902344 6.195312 12.902344 6.078125 L 12.902344 4.675781 C 12.902344 4.449219 12.71875 4.261719 12.488281 4.261719 L 0.539062 4.261719 C 0.3125 4.261719 0.128906 4.449219 0.128906 4.675781 L 0.128906 13.8125 C 0.128906 14.042969 0.3125 14.226562 0.539062 14.226562 L 11.289062 14.226562 C 12.179688 14.226562 12.902344 13.5 12.902344 12.609375 L 12.902344 8.59375 C 12.902344 8.425781 12.804688 8.277344 12.65625 8.214844 C 12.503906 8.148438 12.328125 8.179688 12.207031 8.289062 L 10.527344 9.863281 C 10.445312 9.941406 10.398438 10.050781 10.398438 10.164062 L 10.398438 11.476562 L 6.027344 11.476562 L 6.027344 6.925781 L 10.398438 6.925781 L 10.398438 7.820312 C 10.398438 7.980469 10.492188 7.851562 10.636719 7.921875 Z M 4.4375 11.886719 C 4.4375 12.117188 4.25 12.300781 4.023438 12.300781 L 2.222656 12.300781 C 1.992188 12.300781 1.808594 12.117188 1.808594 11.886719 L 1.808594 10.085938 C 1.808594 9.859375 1.992188 9.671875 2.222656 9.671875 L 4.023438 9.671875 C 4.253906 9.671875 4.4375 9.859375 4.4375 10.085938 Z M 4.4375 8.316406 C 4.4375 8.542969 4.25 8.730469 4.023438 8.730469 L 2.222656 8.730469 C 1.992188 8.730469 1.808594 8.542969 1.808594 8.316406 L 1.808594 6.515625 C 1.808594 6.285156 1.992188 6.101562 2.222656 6.101562 L 4.023438 6.101562 C 4.253906 6.101562 4.4375 6.285156 4.4375 6.515625 Z M 4.4375 8.316406 "/>
<path style=" stroke:none;fill-rule:nonzero;fill:rgb(43.137255%,76.862745%,65.490196%);fill-opacity:1;" d="M 8.210938 10.5 C 8.195312 10.5 8.175781 10.496094 8.15625 10.496094 C 8.039062 10.480469 7.933594 10.414062 7.871094 10.316406 L 6.675781 8.546875 C 6.550781 8.359375 6.597656 8.101562 6.789062 7.976562 C 6.976562 7.847656 7.234375 7.898438 7.363281 8.085938 L 8.292969 9.46875 L 14.261719 4.257812 C 14.433594 4.109375 14.691406 4.128906 14.84375 4.300781 C 14.992188 4.46875 14.976562 4.730469 14.804688 4.882812 L 8.484375 10.398438 C 8.40625 10.464844 8.3125 10.5 8.210938 10.5 Z M 8.210938 10.5 "/>
</g>
</svg>
