<?xml version="1.0" encoding="UTF-8"?>
<svg id="SVGDoc" width="55" height="37" xmlns="http://www.w3.org/2000/svg" version="1.1" xmlns:xlink="http://www.w3.org/1999/xlink" xmlns:avocode="https://avocode.com/" viewBox="0 0 55 37"><defs></defs><desc>Generated with Avocode.</desc><g><g><title>delivery-truck</title><path d="M10.60168,6.11927c0,0.43466 -0.35145,0.78664 -0.78529,0.78664h-6.12602c-0.43362,0 -0.78529,-0.35198 -0.78529,-0.78664c0,-0.43368 0.35168,-0.78566 0.78529,-0.78566h6.12602c0.43385,0 0.78529,0.35198 0.78529,0.78566zM11.12548,17.12598c0,0.43401 -0.35168,0.78566 -0.78529,0.78566h-5.60246c-0.43373,0 -0.78529,-0.35165 -0.78529,-0.78566c0,-0.43401 0.35156,-0.78598 0.78529,-0.78598h5.60223c0.43373,0 0.78552,0.35198 0.78552,0.78598zM9.03098,12.40878c0,0.43433 -0.35168,0.78631 -0.78541,0.78631h-6.64948c-0.43385,0 -0.78552,-0.35198 -0.78552,-0.78631c0,-0.43401 0.35168,-0.78566 0.78552,-0.78566h6.64948c0.43373,0 0.78541,0.35165 0.78541,0.78566zM9.03098,23.41549c0,0.43401 -0.35168,0.78631 -0.78541,0.78631h-0.64407c-0.43385,0 -0.78552,-0.3523 -0.78552,-0.78631c0,-0.43401 0.35168,-0.78664 0.78552,-0.78664h0.64407c0.43373,0 0.78541,0.35263 0.78541,0.78664zM5.76873,23.41549c0,0.43401 -0.35168,0.78631 -0.78529,0.78631h-3.38734c-0.43385,0 -0.78552,-0.3523 -0.78552,-0.78631c0,-0.43401 0.35168,-0.78664 0.78552,-0.78664h3.38734c0.43362,0 0.78529,0.35263 0.78529,0.78664zM49.92221,10.85511v14.08528c0,0.43368 -0.35156,0.78631 -0.78529,0.78631h-2.7824c-0.37777,2.37298 -2.4361,4.19267 -4.91169,4.19267c-2.47559,0 -4.53392,-1.81969 -4.91158,-4.19267h-11.25195c-0.37766,2.37298 -2.43622,4.19267 -4.91169,4.19267c-2.47559,0 -4.53392,-1.81969 -4.9118,-4.19267h-2.41894c-0.43373,0 -0.78529,-0.35263 -0.78529,-0.78631v-23.58669c0,-0.43401 0.35156,-0.78598 0.78529,-0.78598h6.0466c0.43373,0 0.78529,0.35198 0.78529,0.78598c0,0.43433 -0.35156,0.78664 -0.78529,0.78664h-5.26108v22.01375h1.63342c0.37788,-2.37364 2.43622,-4.193 4.9118,-4.193c2.47547,0 4.53392,1.81936 4.91169,4.193h8.33565v-1.12521c0,-0.43401 0.35156,-0.78566 0.78541,-0.78566c0.43385,0 0.78529,0.35165 0.78529,0.78566v1.12521h1.3456c0.37766,-2.37364 2.43599,-4.193 4.91158,-4.193c2.47581,0 4.53415,1.81936 4.9118,4.193h1.99699v-13.29897c0,-3.59134 -2.91985,-6.51337 -6.5086,-6.51337h-6.65737v15.01833c0,0.43401 -0.35145,0.78598 -0.78529,0.78598c-0.43385,0 -0.78541,-0.35198 -0.78541,-0.78598v-17.21974h-11.38985c-0.43373,0 -0.78541,-0.3523 -0.78541,-0.78664c0,-0.43401 0.35168,-0.78598 0.78541,-0.78598h12.17525c0.43385,0 0.78541,0.35198 0.78541,0.78598v1.41542h6.65726c4.45496,0 8.07941,3.62794 8.07919,8.08599zM23.77109,24.94039c0,-1.87852 -1.52687,-3.40636 -3.40347,-3.40636c-1.87672,0 -3.40359,1.52785 -3.40359,3.40636c0,1.87884 1.52687,3.40702 3.40359,3.40702c1.8766,0 3.40347,-1.52817 3.40347,-3.40702zM44.84653,24.94039c0,-1.87852 -1.52687,-3.40636 -3.40336,-3.40636c-1.87649,0 -3.40313,1.52719 -3.40347,3.40571c0,0.00065 0,0.00065 0,0.00065c0,0.00065 0,0.00065 0,0.00065c0.00034,1.87819 1.52699,3.40636 3.40347,3.40636c1.87649,0 3.40336,-1.52817 3.40336,-3.40702zM46.78069,10.85511v3.23511c0,0.43433 -0.35168,0.78664 -0.78529,0.78664h-8.45329c-0.43373,0 -0.78541,-0.3523 -0.78541,-0.78664v-7.39021c0,-0.43368 0.35168,-0.78566 0.78541,-0.78566h4.30092c2.72266,0 4.93767,2.21611 4.93767,4.94075zM45.20999,10.85511c0,-1.85727 -1.51028,-3.36845 -3.36697,-3.36845h-3.5154v5.81759h6.88236zM22.39242,24.94039c0,1.11737 -0.9082,2.02689 -2.0248,2.02689c-1.11649,0 -2.02492,-0.90952 -2.02492,-2.02689c0,-1.1177 0.90843,-2.02689 2.02492,-2.02689c1.1166,0 2.0248,0.90919 2.0248,2.02689zM20.82172,24.94039c0,-0.25099 -0.2037,-0.4546 -0.4541,-0.4546c-0.2504,0 -0.45422,0.2036 -0.45422,0.4546c0,0.25067 0.20382,0.45492 0.45422,0.45492c0.2504,0 0.4541,-0.20426 0.4541,-0.45492zM43.46809,24.94039c0,1.11737 -0.90843,2.02689 -2.02492,2.02689c-1.1166,0 -2.02503,-0.90952 -2.02503,-2.02689c0,-1.1177 0.90843,-2.02689 2.02503,-2.02689c1.11649,0 2.02492,0.90919 2.02492,2.02689zM41.89716,24.94039c0,-0.25099 -0.2037,-0.4546 -0.45399,-0.4546c-0.25051,0 -0.45422,0.2036 -0.45422,0.4546c0,0.25067 0.20382,0.45492 0.45422,0.45492c0.25005,0 0.45399,-0.20426 0.45399,-0.45492zM46.78069,17.81229v1.99127c0,0.43401 -0.35168,0.78631 -0.78529,0.78631c-0.43385,0 -0.78541,-0.3523 -0.78541,-0.78631v-1.99127c0,-0.43499 0.35156,-0.78696 0.78541,-0.78696c0.43362,0 0.78529,0.35198 0.78529,0.78696z" fill="#a3bbc8" fill-opacity="1"></path></g><g opacity="0.34"><title>Ellipse 1</title><path d="M44.74994,17.40606c5.41935,0 9.81251,4.38615 9.81251,9.79685c0,5.4107 -4.39316,9.79685 -9.81251,9.79685c-5.41924,0 -9.81251,-4.38615 -9.81251,-9.79685c0,-5.4107 4.39327,-9.79685 9.81251,-9.79685z" fill="#a3bbc8" fill-opacity="1"></path></g></g></svg>