<svg id="Компонент_2_1" data-name="Компонент 2 – 1" xmlns="http://www.w3.org/2000/svg" width="72.38" height="51.37" viewBox="0 0 72.38 51.37">
  <ellipse id="Ellipse_2" data-name="Ellipse 2" cx="16.88" cy="16.87" rx="16.88" ry="16.87" transform="translate(38.62 17.63)" fill="#a3bbc8"/>
  <path id="Shape_1" data-name="Shape 1" d="M817.031,1314.729c0-.022,0-.044,0-.067H794.449c0,.022,0,.044,0,.067a6.347,6.347,0,0,1-12.693,0c0-.022,0-.044,0-.067h-5.414a2.061,2.061,0,0,1-2.071-2.046v-2.178H771a.99.99,0,1,1,0-1.981h9.62a.99.99,0,1,1,0,1.981H776.28v2.178a.066.066,0,0,0,.067.066h5.76a6.37,6.37,0,0,1,12,0h20.791v-7.458a1,1,0,0,1,2,0v7.459h.482a6.37,6.37,0,0,1,12,0H832v-4.357H830.86a3.125,3.125,0,0,1-3.14-3.1v-2.112a1,1,0,0,1,1-.99h3.117a3.278,3.278,0,0,0-3.115-2.245H816.9V1301a1,1,0,0,1-2,0v-17.955a.066.066,0,0,0-.067-.066h-38.48a.066.066,0,0,0-.067.066V1301a1,1,0,0,1-2,0v-17.955a2.061,2.061,0,0,1,2.071-2.046h38.48a2.061,2.061,0,0,1,2.071,2.046v2.179h7.549a4.189,4.189,0,0,1,4.208,4.159v1.056a.991.991,0,0,1-.793.967l1.658,6.551a5.242,5.242,0,0,1,4.48,5.154v10.562a1,1,0,0,1-1,.989h-3.275c0,.022,0,.044,0,.067a6.347,6.347,0,0,1-12.694,0Zm2,0a4.343,4.343,0,1,0,4.343-4.29A4.322,4.322,0,0,0,819.035,1314.729Zm-35.273,0a4.342,4.342,0,1,0,4.342-4.29A4.321,4.321,0,0,0,783.762,1314.729Zm45.962-9.5a1.13,1.13,0,0,0,1.136,1.122H832V1304.1h-2.272ZM816.9,1297.9h10.542l-1.637-6.468h-8.9Zm0-8.448h9.753v-.066a2.194,2.194,0,0,0-2.2-2.179H816.9Zm4.413,25.281a2.07,2.07,0,1,1,2.07,2.05A2.06,2.06,0,0,1,821.31,1314.73Zm-35.28,0a2.07,2.07,0,1,1,2.07,2.05A2.06,2.06,0,0,1,786.03,1314.73Zm10.625-4.291a.99.99,0,1,1,0-1.98H811.62a.99.99,0,1,1,0,1.98Zm-23.516-4.225a.99.99,0,1,1,0-1.98h12.827a.99.99,0,1,1,0,1.98Zm20.669-4.514-5.344-5.28a.982.982,0,0,1,0-1.4,1.012,1.012,0,0,1,1.417,0l4.635,4.58,8.912-8.8a1.012,1.012,0,0,1,1.417,0,.983.983,0,0,1,0,1.4l-9.62,9.5a1.012,1.012,0,0,1-1.417,0Z" transform="translate(-770 -1281)" fill="#243f4d"/>
</svg>
