<svg xmlns="http://www.w3.org/2000/svg" width="18" height="12.373" viewBox="0 0 18 12.373">
  <path id="Shape_2" data-name="Shape 2" d="M1167.286,2896.994a1.308,1.308,0,0,1-.9-.35l-.014-.013-.013-.013a1.209,1.209,0,0,1-.364-.862v-9.9a1.264,1.264,0,0,1,1.286-1.238h15.429a1.264,1.264,0,0,1,1.285,1.238v9.9a1.209,1.209,0,0,1-.354.851l-.023.023-.023.021a1.307,1.307,0,0,1-.886.342Zm15.251-.824-6.073-5.845-.726.489a1.329,1.329,0,0,1-1.475,0l-.726-.489-6.074,5.845Zm.606-.584v-9.727c0-.011,0-.021,0-.032l-5.965,4.018Zm-16.286-9.727v9.727l5.966-5.741-5.965-4.018C1166.858,2885.837,1166.857,2885.847,1166.857,2885.858Zm7.9,4.281a.444.444,0,0,0,.491,0l6.966-4.693h-14.422Z" transform="translate(-1166 -2884.621)" fill="#436372"/>
</svg>
