<svg xmlns="http://www.w3.org/2000/svg" width="22.692" height="14.361" viewBox="0 0 22.692 14.361">
  <path id="Union_6" data-name="Union 6" d="M1052.751,1960.349a7.121,7.121,0,0,1-6.593-5.649,6.477,6.477,0,0,1-.138-1.933,7.27,7.27,0,0,1,5.485-6.559,5.793,5.793,0,0,1,1.189-.187c.228-.007.456-.021.684-.021a6.736,6.736,0,0,1,3.4.932,8.323,8.323,0,0,1,1.27.932c-.716.7-1.4,1.4-2.108,2.085a3.863,3.863,0,0,0-2.1-1.015,4.349,4.349,0,0,0-.614-.045,4.3,4.3,0,0,0-4.135,3.352,3.925,3.925,0,0,0-.1,1.3,4.3,4.3,0,0,0,2.935,3.736,4.176,4.176,0,0,0,1.254.189c.1,0,.2,0,.3-.009a4.223,4.223,0,0,0,2.1-.67,3.317,3.317,0,0,0,1.426-2.162h-3.847c0-.094.014-1.892.021-2.769l.008-.117h6.754a7.762,7.762,0,0,1-1.275,6.056,6.312,6.312,0,0,1-3.553,2.32,7.7,7.7,0,0,1-1.939.247C1053.03,1960.361,1052.89,1960.357,1052.751,1960.349Zm13.331-4.054h-1.892v-.069l.019-2.43H1061.7v-.076l.014-1.816v-.069h2.506l.019-2.437v-.069h1.961v.069l-.019,2.437h2.507v.069l-.014,1.816v.076h-2.507l-.018,2.43v.069Z" transform="translate(-1046 -1946)" fill="#888"/>
</svg>
