
<svg width="22" height="18" viewBox="0 0 22 18">
<path d="M20.71955,10.15763c-0.86929,1.32196 -3.09963,3.38708 -4.74552,4.75414c-1.69556,1.40758 -3.93322,3.08674 -4.96456,3.08674c-1.01521,0 -3.26088,-1.68178 -4.96582,-3.09295c-1.65882,-1.37327 -3.90163,-3.44003 -4.7628,-4.7476c-0.96096,-1.45758 -1.35281,-2.79653 -1.27041,-4.33778c0.08297,-1.55138 0.7394,-3.00765 1.84856,-4.10051c1.12576,-1.10985 2.59563,-1.72067 4.1391,-1.72067c2.46197,0 4.13429,1.90401 4.9379,2.82039c0.02666,0.03007 0.05459,0.06242 0.08274,0.0938c0.05253,-0.05654 0.10632,-0.11471 0.15633,-0.16962c0.87914,-0.95952 2.51564,-2.74457 4.82689,-2.74457c1.54346,0 3.01357,0.61081 4.13921,1.72067c1.10916,1.09286 1.76559,2.54914 1.84856,4.10051c0.10551,1.97133 -0.62336,3.35375 -1.27018,4.33745zM20.66794,5.89109c-0.13481,-2.51874 -2.22794,-4.56949 -4.66599,-4.56949c-1.72897,0 -3.05729,1.45007 -3.85105,2.31612c-0.47848,0.5229 -0.74203,0.80951 -1.1507,0.80951c-0.39597,0 -0.63148,-0.26766 -1.05892,-0.75526c-0.72716,-0.82782 -2.08054,-2.37037 -3.94318,-2.37037c-2.43793,0 -4.53117,2.05075 -4.66587,4.56949c-0.06626,1.24058 0.25875,2.33213 1.05389,3.5384c0.62382,0.94776 2.40669,2.71581 4.43676,4.40183c2.41825,2.00957 3.84647,2.80732 4.18774,2.84229c0.34161,-0.03072 1.7664,-0.82128 4.17286,-2.82595c2.01828,-1.68178 3.79852,-3.45669 4.43012,-4.41752c0.80612,-1.2262 1.12141,-2.28474 1.05434,-3.53905z" fill="#a3bbc8" fill-opacity="1">
</path>
</svg>