<?xml version="1.0" encoding="UTF-8"?>
<svg id="SVGDoc" width="18" height="17" xmlns="http://www.w3.org/2000/svg" version="1.1" xmlns:xlink="http://www.w3.org/1999/xlink" xmlns:avocode="https://avocode.com/" viewBox="0 0 18 17"><defs></defs><desc>Generated with Avocode.</desc><g><g><title>Shape 55</title><path d="M8.91293,16.24445c-0.09521,0 -0.19054,-0.01797 -0.27946,-0.05621c-0.35339,-0.14968 -8.65036,-3.74952 -8.65036,-10.75964c0.09121,-2.64979 2.20699,-4.7074 4.8175,-4.7074c1.74351,0 3.26614,0.91802 4.11232,2.30991c0.84663,-1.39189 2.36938,-2.30991 4.11221,-2.30991c2.60937,0 4.72515,2.05761 4.81693,4.68355c0,7.03398 -8.29697,10.63382 -8.64922,10.7835c-0.08949,0.03824 -0.18471,0.05621 -0.27992,0.05621zM4.80061,2.10622c-1.84628,0 -3.34305,1.46967 -3.40782,3.34623c0.00046,5.40711 6.12488,8.66249 7.52014,9.33441c1.39526,-0.67193 7.52014,-3.92992 7.52014,-9.35827c-0.06546,-1.8527 -1.56292,-3.32237 -3.40794,-3.32237c-1.84502,0 -3.34225,1.46967 -3.40782,3.34623c-0.01247,0.37257 -0.32478,0.66898 -0.70438,0.66898c-0.3804,0 -0.69191,-0.29642 -0.70461,-0.66898c-0.06477,-1.87656 -1.56166,-3.34623 -3.40771,-3.34623z" fill="#243f4d" fill-opacity="1"></path></g></g></svg>