<svg xmlns="http://www.w3.org/2000/svg" width="14.973" height="11.009" viewBox="0 0 14.973 11.009">
  <path id="Shape_93" data-name="Shape 93" d="M509.931,2024.007a.629.629,0,0,0,.425-.161l5.434-4.912a.165.165,0,0,0,.018-.017l.031-.032h0a.57.57,0,0,0,.145-.343.56.56,0,0,0-.006-.13.582.582,0,0,0-.155-.307l-.033-.032-5.435-4.912a.64.64,0,0,0-.874.023.57.57,0,0,0,.024.834l4.311,3.9H501.631a.59.59,0,1,0,0,1.18h12.186l-4.311,3.9a.571.571,0,0,0-.024.834A.634.634,0,0,0,509.931,2024.007Z" transform="translate(-501.014 -2012.998)" fill="#fff"/>
</svg>
