<svg xmlns="http://www.w3.org/2000/svg" width="22" height="8.999" viewBox="0 0 22 8.999">
  <path id="Shape_1" data-name="Shape 1" d="M1509.3,1332.473l-.008,0h16.956l-.1,2.858a.292.292,0,0,0,0,.41l.173.173a.289.289,0,0,0,.407,0l4.192-4.212a.288.288,0,0,0,.084-.2.284.284,0,0,0-.084-.2l-4.192-4.213a.292.292,0,0,0-.407,0l-.173.174a.285.285,0,0,0-.084.2.275.275,0,0,0,.084.2l.113,2.864h-16.965a.3.3,0,0,0-.292.3v1.37A.293.293,0,0,0,1509.3,1332.473Z" transform="translate(-1509 -1326.997)" fill="#a3bbc8"/>
</svg>
