<?xml version="1.0" encoding="UTF-8"?>
<svg id="SVGDoc" width="54" height="53" xmlns="http://www.w3.org/2000/svg" version="1.1" xmlns:xlink="http://www.w3.org/1999/xlink" xmlns:avocode="https://avocode.com/" viewBox="0 0 54 53"><defs></defs><desc>Generated with Avocode.</desc><g><g><title>credit-card</title><path d="M47.26108,32.15142v8.26508c0,2.11611 -1.71982,3.83776 -3.834,3.83776h-39.33495c-2.11407,0 -3.834,-1.7223 -3.834,-3.83776v-23.6197c0,-2.11644 1.71993,-3.83808 3.834,-3.83874h25.12836c0.46154,0 0.83565,0.37485 0.83565,0.83631c0,0.46211 -0.37411,0.83697 -0.83565,0.83697h-25.12836c-1.19259,0 -2.1627,0.97161 -2.1627,2.16546v2.88445h9.86835c0.46154,0 0.83576,0.37485 0.83576,0.83631c0,0.46211 -0.37422,0.83664 -0.83576,0.83664h-9.86835v5.46986h27.29107c0.46154,0 0.83565,0.37518 0.83565,0.83664c0,0.46277 -0.37411,0.83664 -0.83565,0.83664h-27.29107v11.91917c0,1.19319 0.97012,2.16513 2.1627,2.16513h39.3346c1.19247,0 2.1627,-0.97194 2.1627,-2.16513v-8.26508c0,-0.46146 0.37411,-0.83631 0.83565,-0.83631c0.46154,0 0.83565,0.37485 0.83599,0.83631zM30.05614,20.51821c0,0.46211 -0.37411,0.83664 -0.83565,0.83664h-14.21642c-0.46154,0 -0.83565,-0.37453 -0.83565,-0.83664c0,-0.46211 0.37411,-0.83697 0.83565,-0.83697h14.21642c0.46154,0 0.83565,0.37485 0.83565,0.83697zM20.81756,32.07266c0,0.46244 -0.37411,0.83697 -0.83565,0.83697h-14.27113c-0.46154,0 -0.83565,-0.37453 -0.83565,-0.83697c0,-0.46179 0.37411,-0.83697 0.83565,-0.83697h14.27113c0.46154,0 0.83565,0.37518 0.83565,0.83697zM14.73136,36.06435c0,0.46277 -0.37422,0.83697 -0.83588,0.83697h-8.1847c-0.46154,0 -0.83565,-0.3742 -0.83565,-0.83697c0,-0.46179 0.37411,-0.83631 0.83565,-0.83631h8.18493c0.46143,0 0.83565,0.37453 0.83565,0.83631zM47.69836,20.78424v-4.77309c0,-0.75559 -0.61443,-1.37098 -1.36986,-1.37098h-11.89407c-0.7552,0 -1.36986,0.61539 -1.36986,1.37098v10.74755c0,0.75592 0.61443,1.37098 1.36986,1.37098h11.89407c0.75542,0 1.36986,-0.61506 1.36986,-1.37098v-3.18577c0,-0.46179 0.37422,-0.83631 0.83576,-0.83631c0.46165,0 0.83588,0.37453 0.83588,0.83631v3.18577c0,1.67883 -1.36459,3.04458 -3.0415,3.04458h-11.89407c-1.67702,0 -3.04138,-1.36575 -3.04138,-3.04458v-10.74689c0,-1.45628 1.02654,-2.67659 2.3933,-2.97465v-6.01661c0,-3.64036 2.9583,-6.60226 6.59489,-6.60226c3.63647,0 6.59489,2.9619 6.59489,6.60226v6.01661c1.36688,0.2974 2.39388,1.51772 2.39388,2.97399v4.77309c0,0.46179 -0.37422,0.83664 -0.83588,0.83664c-0.46154,0 -0.83565,-0.37485 -0.83576,-0.83664zM45.30448,12.96722v-5.94668c0,-2.7181 -2.2086,-4.92833 -4.92336,-4.92833c-2.71488,0 -4.92348,2.21023 -4.92348,4.92833v5.94668zM43.47366,20.38422c0,1.41673 -0.95627,2.61319 -2.25632,2.97889v2.04062c0,0.46244 -0.37422,0.83599 -0.83576,0.83599c-0.46165,0 -0.83576,-0.37355 -0.83576,-0.83599v-2.04062c-1.30016,-0.3657 -2.25632,-1.56216 -2.25632,-2.97889c0,-1.70727 1.38702,-3.09557 3.09208,-3.09557c1.70483,0 3.09196,1.3883 3.09208,3.09557zM41.80225,20.38422c0,-0.7837 -0.63744,-1.42196 -1.42067,-1.42196c-0.78346,0 -1.42067,0.63761 -1.42067,1.42196c0,0.78435 0.63721,1.42196 1.42067,1.42196c0.78323,0 1.42067,-0.63761 1.42067,-1.42196z" fill="#a3bbc8" fill-opacity="1"></path></g><g opacity="0.34"><title>Ellipse 1</title><path d="M43.99997,33.06225c5.41924,0 9.81251,4.38615 9.81251,9.79685c0,5.4107 -4.39327,9.79685 -9.81251,9.79685c-5.41935,0 -9.81251,-4.38615 -9.81251,-9.79685c0,-5.4107 4.39316,-9.79685 9.81251,-9.79685z" fill="#a3bbc8" fill-opacity="1"></path></g></g></svg>