<?xml version="1.0" encoding="UTF-8"?>
<svg xmlns="http://www.w3.org/2000/svg" xmlns:xlink="http://www.w3.org/1999/xlink" width="15pt" height="15pt" viewBox="0 0 15 15" version="1.1">
<g id="surface1">
<path style=" stroke:none;fill-rule:nonzero;fill:rgb(39.215686%,49.803922%,58.039216%);fill-opacity:1;" d="M 7.214844 8.632812 C 9.539062 8.632812 11.429688 6.726562 11.429688 4.386719 C 11.429688 2.046875 9.539062 0.144531 7.214844 0.144531 C 4.890625 0.144531 3.003906 2.046875 3.003906 4.386719 C 3.003906 6.726562 4.890625 8.632812 7.214844 8.632812 Z M 8.601562 3.433594 L 9.179688 3.433594 C 9.414062 3.433594 9.605469 3.625 9.605469 3.859375 C 9.605469 4.097656 9.414062 4.289062 9.179688 4.289062 L 8.601562 4.289062 C 8.367188 4.289062 8.175781 4.097656 8.175781 3.859375 C 8.175781 3.625 8.367188 3.433594 8.601562 3.433594 Z M 5.324219 3.433594 L 5.902344 3.433594 C 6.136719 3.433594 6.328125 3.625 6.328125 3.859375 C 6.328125 4.097656 6.136719 4.289062 5.902344 4.289062 L 5.324219 4.289062 C 5.085938 4.289062 4.898438 4.097656 4.898438 3.859375 C 4.898438 3.625 5.085938 3.433594 5.324219 3.433594 Z M 5.179688 5.207031 C 5.402344 5.132812 5.644531 5.25 5.71875 5.472656 C 5.941406 6.121094 6.542969 6.558594 7.214844 6.558594 C 7.886719 6.558594 8.488281 6.121094 8.710938 5.472656 C 8.785156 5.25 9.027344 5.132812 9.253906 5.207031 C 9.476562 5.285156 9.59375 5.527344 9.519531 5.75 C 9.175781 6.746094 8.25 7.414062 7.214844 7.414062 C 6.175781 7.414062 5.25 6.746094 4.910156 5.75 C 4.835938 5.527344 4.953125 5.285156 5.179688 5.207031 Z M 5.179688 5.207031 "/>
<path style=" stroke:none;fill-rule:nonzero;fill:rgb(39.215686%,49.803922%,58.039216%);fill-opacity:1;" d="M 10.808594 7.980469 C 9.890625 8.910156 8.617188 9.488281 7.214844 9.488281 C 5.824219 9.488281 4.566406 8.921875 3.648438 8.007812 C 2.519531 8.550781 1.960938 9.359375 1.960938 10.476562 L 1.960938 13.386719 C 2.527344 13.699219 3.902344 14.84375 7.285156 14.84375 C 10.695312 14.84375 12.117188 13.722656 12.542969 13.421875 L 12.542969 10.476562 C 12.542969 9.335938 11.96875 8.519531 10.808594 7.980469 Z M 10.808594 7.980469 "/>
</g>
</svg>
