<svg xmlns="http://www.w3.org/2000/svg" width="36.38" height="37.722" viewBox="0 0 36.38 37.722">
  <path id="Shape_1" data-name="Shape 1" d="M1019.471,958.96h-25.5A1.985,1.985,0,0,1,992,956.969V929.691a.909.909,0,0,1,.265-.643l7.476-7.542a.892.892,0,0,1,.638-.267h19.092a1.984,1.984,0,0,1,1.972,1.992V926.1a.9.9,0,1,1-1.8,0V923.23a.169.169,0,0,0-.167-.17h-18.189v5.552a1.984,1.984,0,0,1-1.974,1.99h-5.5v26.367a.169.169,0,0,0,.168.17h25.5a.169.169,0,0,0,.167-.17v-13.9a.9.9,0,1,1,1.8,0v13.9A1.984,1.984,0,0,1,1019.471,958.96Zm-19.994-34.612-4.395,4.434h4.226a.169.169,0,0,0,.168-.17v-4.264Zm4.207,28.143h-4.625a.911.911,0,0,1,0-1.822H1003l1.394-5.065a.911.911,0,0,1,.231-.4l.014-.013h-5.579a.911.911,0,0,1,0-1.822h7.384l5.431-5.48H999.059a.91.91,0,0,1,0-1.821h14.62l8.428-8.5a3.037,3.037,0,0,1,4.318,0l1.062,1.071a3.1,3.1,0,0,1,0,4.356L1010,950.632a.9.9,0,0,1-.4.233l-5.7,1.595c-.025.006-.178.025-.224.03h0Zm2.033-4.9h0l-.736,2.677,2.652-.744-1.916-1.932Zm15.254-16.309h0l-14.433,14.561,2.827,2.854,14.434-14.563-2.828-2.852Zm3.3-2.8a1.23,1.23,0,0,0-.883.369L1022.248,930l2.828,2.854,1.137-1.147a1.27,1.27,0,0,0,0-1.782l-1.062-1.071A1.23,1.23,0,0,0,1024.268,928.483Z" transform="translate(-992.002 -921.238)" fill="#a3bbc8"/>
</svg>
