<svg id="Компонент_1_1" data-name="Компонент 1 – 1" xmlns="http://www.w3.org/2000/svg" width="73.38" height="59.37" viewBox="0 0 73.38 59.37">
  <ellipse id="Ellipse_2" data-name="Ellipse 2" cx="16.88" cy="16.87" rx="16.88" ry="16.87" transform="translate(39.62 25.63)" fill="#a3bbc8"/>
  <path id="Shape_1" data-name="Shape 1" d="M490.546,1330a1.071,1.071,0,1,1,0-2.143h3.633l.878-7H473.365A3.364,3.364,0,0,1,470,1317.5v-41.143a3.365,3.365,0,0,1,3.365-3.357h57.271a3.364,3.364,0,0,1,3.364,3.357V1317.5a3.364,3.364,0,0,1-3.364,3.357H508.944l.877,7h3.634a1.071,1.071,0,1,1,0,2.143Zm5.8-2.143h11.312l-.877-7H497.22Zm-24.2-51.5V1317.5a1.217,1.217,0,0,0,1.218,1.214h57.271a1.216,1.216,0,0,0,1.217-1.214v-41.143a1.216,1.216,0,0,0-1.217-1.214H473.365A1.217,1.217,0,0,0,472.147,1276.357Zm11.526,38.785a1.071,1.071,0,1,1,0-2.142h43.6v-33.286h-2.362a1.072,1.072,0,1,1,0-2.144h3.436a1.073,1.073,0,0,1,1.074,1.072v35.429a1.072,1.072,0,0,1-1.074,1.071Zm-8.018,0a1.072,1.072,0,0,1-1.074-1.071v-35.429a1.073,1.073,0,0,1,1.074-1.072h44.671a1.071,1.071,0,1,1,0,2.143h-43.6V1313h2.362a1.071,1.071,0,1,1,0,2.142Zm19.855-4.562a1.07,1.07,0,0,1-1.07-1.07v-9.15a1.07,1.07,0,0,1,1.07-1.069h.01a1.07,1.07,0,0,1,1.07,1.069v9.15a1.07,1.07,0,0,1-1.07,1.07Zm25.96-.01a1.07,1.07,0,0,1-1.07-1.07v-16a1.071,1.071,0,0,1,1.07-1.07h.01a1.07,1.07,0,0,1,1.07,1.07v16a1.07,1.07,0,0,1-1.07,1.07Zm-12.98,0a1.07,1.07,0,0,1-1.07-1.07v-2.291a1.069,1.069,0,0,1,1.07-1.069h.01a1.069,1.069,0,0,1,1.07,1.069v2.291a1.07,1.07,0,0,1-1.07,1.07Zm-29.327-4.5a3.363,3.363,0,0,1,4.9-2.984l8.407-8.141a3.364,3.364,0,1,1,6.356-.905l7.348,3.882a3.359,3.359,0,0,1,3.721-.614l8.6-9.089a3.33,3.33,0,0,1-.4-1.577,3.367,3.367,0,1,1,1.957,3.047l-8.6,9.09a3.327,3.327,0,0,1,.4,1.577,3.365,3.365,0,1,1-6.685-.542l-7.348-3.882a3.358,3.358,0,0,1-3.852.55l-8.407,8.141a3.331,3.331,0,0,1,.329,1.446,3.365,3.365,0,0,1-6.729,0Zm2.147,0a1.217,1.217,0,1,0,1.217-1.214A1.216,1.216,0,0,0,481.311,1306.071Zm25.962-5.714a1.217,1.217,0,1,0,1.217-1.214A1.217,1.217,0,0,0,507.273,1300.357Zm-12.981-6.857a1.217,1.217,0,1,0,1.217-1.214A1.216,1.216,0,0,0,494.293,1293.5Zm25.962-6.857a1.217,1.217,0,1,0,1.217-1.215A1.217,1.217,0,0,0,520.255,1286.643Z" transform="translate(-470 -1273)" fill="#243f4d"/>
</svg>
