<svg xmlns="http://www.w3.org/2000/svg" width="43.118" height="39.108" viewBox="0 0 43.118 39.108">
  <path id="Shape_1" data-name="Shape 1" d="M1207.679,959.439h-4.858a2.124,2.124,0,0,1-1.986-1.428l-4.84-13.722a3.351,3.351,0,0,1-1.92-2.664h-1.36a2.742,2.742,0,0,1-2.7-2.775v-6.095a2.742,2.742,0,0,1,2.7-2.775h1.361a3.285,3.285,0,0,1,3.231-2.948h.023c.676,0,6.609-.031,6.661-.034a48.655,48.655,0,0,0,20.7-6.384,2.07,2.07,0,0,1,2.127.022,2.179,2.179,0,0,1,1.052,1.886v7.126a6.228,6.228,0,0,1,0,12.306v7.125a2.177,2.177,0,0,1-1.051,1.886,2.071,2.071,0,0,1-2.127.023,48.672,48.672,0,0,0-19.185-6.244l4.159,11.785a2.217,2.217,0,0,1-.255,1.985A2.1,2.1,0,0,1,1207.679,959.439Zm-9.369-14.866,4.483,12.708a.03.03,0,0,0,.028.019h4.858a.024.024,0,0,0,.024-.013.025.025,0,0,0,0-.027l-4.479-12.687h-4.918Zm27.426-22.1a.061.061,0,0,0-.029.009,50.7,50.7,0,0,1-20.647,6.571v13.5a50.7,50.7,0,0,1,20.648,6.57.05.05,0,0,0,.028.01.055.055,0,0,0,.028-.009.039.039,0,0,0,.022-.041V922.522a.039.039,0,0,0-.022-.041A.054.054,0,0,0,1225.737,922.472Zm-28.43,6.7a1.189,1.189,0,0,0-1.171,1.2V941.23a1.208,1.208,0,0,0,.693,1.1,1.086,1.086,0,0,0,.4.1l5.745,0V929.171Zm30.563,2.642h0v7.974a4.09,4.09,0,0,0,0-7.974Zm-35.155.307a.627.627,0,0,0-.618.635v6.095a.628.628,0,0,0,.618.635h1.337V932.12Z" transform="translate(-1190.014 -920.33)" fill="#a3bbc8"/>
</svg>
