<svg xmlns="http://www.w3.org/2000/svg" width="18" height="14.809" viewBox="0 0 18 14.809">
  <path id="Shape_3" data-name="Shape 3" d="M1168.836,2969.969a.411.411,0,0,1-.265-.38v-2.071h-1.286a1.261,1.261,0,0,1-1.286-1.232v-9.862a1.261,1.261,0,0,1,1.286-1.232h15.429a1.261,1.261,0,0,1,1.285,1.232v9.862a1.261,1.261,0,0,1-1.285,1.232h-10.948l-2.463,2.362a.433.433,0,0,1-.3.121A.448.448,0,0,1,1168.836,2969.969Zm-1.979-13.545v9.862a.421.421,0,0,0,.428.41H1169a.42.42,0,0,1,.428.411v1.49l1.857-1.78a.437.437,0,0,1,.3-.12h11.126a.421.421,0,0,0,.428-.41v-9.862a.421.421,0,0,0-.428-.41h-15.429A.421.421,0,0,0,1166.857,2956.424Zm10.863,4.927a.62.62,0,1,1,.62.64A.63.63,0,0,1,1177.72,2961.35Zm-3.34,0a.62.62,0,1,1,.62.64A.63.63,0,0,1,1174.38,2961.35Zm-3.59,0a.62.62,0,1,1,.62.64A.63.63,0,0,1,1170.79,2961.35Z" transform="translate(-1166 -2955.191)" fill="#436372"/>
</svg>
