<svg id="Компонент_3_1" data-name="Компонент 3 – 1" xmlns="http://www.w3.org/2000/svg" width="78.37" height="64.001" viewBox="0 0 78.37 64.001">
  <ellipse id="Ellipse_2" data-name="Ellipse 2" cx="16.88" cy="16.87" rx="16.88" ry="16.87" transform="translate(44.61 29.631)" fill="#a3bbc8"/>
  <path id="Shape_1" data-name="Shape 1" d="M1114.126,1331.073c-6.529-2.6-13.671-7.536-20.112-13.91s-11.433-13.441-14.057-19.9c-2.742-6.753-2.583-12.125.449-15.125l4.292-4.247a4.7,4.7,0,0,1,3.962-1.338,4.395,4.395,0,0,1,3.263,2.188l6.518,11.467a4.488,4.488,0,0,1-.75,5.4l-4.069,4.027a2.353,2.353,0,0,0-.241,3.073,75.4,75.4,0,0,0,15.245,15.086,2.416,2.416,0,0,0,3.1-.239l4.069-4.027a4.608,4.608,0,0,1,5.457-.743l11.588,6.45a4.353,4.353,0,0,1,2.211,3.229,4.592,4.592,0,0,1-1.354,3.92l-4.292,4.247a9.1,9.1,0,0,1-6.633,2.371A23.949,23.949,0,0,1,1114.126,1331.073Zm-32.186-47.419c-2.344,2.319-2.333,6.987.031,12.806,2.516,6.2,7.339,13.011,13.577,19.184s13.124,10.946,19.387,13.436c5.881,2.338,10.6,2.349,12.941.03l1.942-1.922-9.319-5.03a1.067,1.067,0,0,1-.433-1.456,1.09,1.09,0,0,1,1.472-.428l9.878,5.333.751-.743a2.474,2.474,0,0,0,.738-2.11,2.219,2.219,0,0,0-1.125-1.65l-11.588-6.45a2.413,2.413,0,0,0-2.858.389l-1.937,1.915,1.9,1.029a1.068,1.068,0,0,1,.433,1.456,1.092,1.092,0,0,1-1.472.428l-2.464-1.33-.533.528a4.616,4.616,0,0,1-5.934.445,77.6,77.6,0,0,1-15.693-15.53,4.5,4.5,0,0,1,.449-5.872l.534-.528-5.387-9.773a1.069,1.069,0,0,1,.433-1.457,1.091,1.091,0,0,1,1.472.429l5.081,9.219,1.936-1.916a2.353,2.353,0,0,0,.393-2.829l-6.519-11.468a2.241,2.241,0,0,0-1.667-1.112,2.486,2.486,0,0,0-.337-.023,2.549,2.549,0,0,0-1.8.753l-.75.742,1.344,2.439a1.068,1.068,0,0,1-.433,1.457,1.091,1.091,0,0,1-1.472-.428l-1.04-1.885Zm50.79,32.995a1.066,1.066,0,0,1-.3-.97l1.157-5.727a1.085,1.085,0,0,1,2.129.421l-.484,2.393a23.924,23.924,0,0,0,7.594-17.494A24.433,24.433,0,0,0,1098.5,1281.4a1.094,1.094,0,0,1-1.512.259,1.066,1.066,0,0,1-.263-1.5A26.607,26.607,0,0,1,1145,1295.272a26.047,26.047,0,0,1-8.042,18.837l2.114-.418a1.086,1.086,0,0,1,1.277.843,1.074,1.074,0,0,1-.851,1.263l-5.787,1.146a1.14,1.14,0,0,1-.213.022A1.094,1.094,0,0,1,1132.73,1316.649Zm-4.8-2.984-1.157-1.984a1.068,1.068,0,0,1,.4-1.467,1.092,1.092,0,0,1,1.482.393l1.156,1.984a1.067,1.067,0,0,1-.4,1.467,1.092,1.092,0,0,1-1.482-.392Zm-20.437.392a1.068,1.068,0,0,1-.4-1.467l1.157-1.984a1.092,1.092,0,0,1,1.482-.393,1.067,1.067,0,0,1,.4,1.467l-1.157,1.984a1.092,1.092,0,0,1-1.482.393Zm-8.023-7.939a1.068,1.068,0,0,1,.4-1.467l2-1.146a1.091,1.091,0,0,1,1.482.393,1.068,1.068,0,0,1-.4,1.467l-2,1.146a1.091,1.091,0,0,1-1.482-.393Zm36.483.392-2.005-1.145a1.069,1.069,0,0,1-.4-1.467,1.091,1.091,0,0,1,1.482-.393l2.005,1.146a1.068,1.068,0,0,1,.4,1.467,1.092,1.092,0,0,1-1.482.392Zm-9.327-4.366v-3.507h-7.016a1.089,1.089,0,0,1-.847-.4,1.065,1.065,0,0,1-.213-.9l2.316-10.309a1.085,1.085,0,0,1,1.294-.815,1.074,1.074,0,0,1,.824,1.281l-2.021,9h5.665v-9.235a1.085,1.085,0,0,1,2.17,0v9.235h1.229a1.074,1.074,0,1,1,0,2.147H1128.8v3.507a1.085,1.085,0,0,1-2.171,0Zm-19.749,1.074a1.08,1.08,0,0,1-1.085-1.074c0-3.282,2.685-4.732,5.053-6.012,2.617-1.413,4.207-2.43,4.207-4.624a3.566,3.566,0,0,0-7.089,0,1.085,1.085,0,0,1-2.171,0,5.729,5.729,0,0,1,11.43,0c0,3.628-2.958,5.226-5.336,6.51-1.927,1.04-3.263,1.823-3.735,3.053h7.987a1.074,1.074,0,1,1,0,2.147Zm30.094-6.872a1.074,1.074,0,1,1,0-2.147h2.315a1.074,1.074,0,1,1,0,2.147Zm-3.421-9.7a1.067,1.067,0,0,1,.4-1.466l2.005-1.146a1.092,1.092,0,0,1,1.482.393,1.068,1.068,0,0,1-.4,1.467l-2.005,1.145a1.091,1.091,0,0,1-1.482-.393Zm-31.68.393-2-1.146a1.067,1.067,0,0,1-.4-1.466,1.092,1.092,0,0,1,1.482-.393l2,1.146a1.066,1.066,0,0,1,.4,1.466,1.091,1.091,0,0,1-1.482.393Zm25.3-6.708a1.068,1.068,0,0,1-.4-1.467l1.157-1.984a1.092,1.092,0,0,1,1.482-.393,1.068,1.068,0,0,1,.4,1.467l-1.157,1.984a1.092,1.092,0,0,1-1.482.393Zm-18.917-.392-1.157-1.984a1.068,1.068,0,0,1,.4-1.467,1.091,1.091,0,0,1,1.482.393l1.157,1.985a1.066,1.066,0,0,1-.4,1.466,1.092,1.092,0,0,1-1.482-.392Zm9.114-2.992v-2.291a1.085,1.085,0,0,1,2.17,0v2.291a1.085,1.085,0,0,1-2.17,0Z" transform="translate(-1078.01 -1268.999)" fill="#243f4d"/>
</svg>
