<svg xmlns="http://www.w3.org/2000/svg" width="6.113" height="10.978" viewBox="0 0 6.113 10.978">
  <path id="Shape_21" data-name="Shape 21" d="M1539.333,4295.687a.558.558,0,0,1-.411-.183.6.6,0,0,1,.022-.832l4.547-4.475-4.547-4.474a.6.6,0,0,1-.022-.831.552.552,0,0,1,.8-.023l4.977,4.9.014.014a.563.563,0,0,1,.113.168h0a.613.613,0,0,1,.052.245v0a.61.61,0,0,1-.052.249h0a.6.6,0,0,1-.111.164c0,.005-.01.009-.015.015l-4.977,4.9A.549.549,0,0,1,1539.333,4295.687Z" transform="translate(-1538.767 -4284.709)" fill="#262626"/>
</svg>
